# Blender 4.4.3
# www.blender.org
mtllib testyearling.mtl
o Cube
v 0.078682 2.182774 -0.021311
v 0.172968 -0.291929 -0.115597
v 0.078682 2.182774 0.109146
v 0.172968 -0.291929 0.203432
v -0.051776 2.182774 -0.021311
v -0.146061 -0.291929 -0.115597
v -0.051776 2.182774 0.109146
v -0.146061 -0.291929 0.203432
v 0.172968 1.862255 -0.115597
v -0.146061 1.862255 0.203432
v 0.172968 1.862255 0.203432
v -0.146061 1.862255 -0.115597
v -0.039576 2.793941 -1.324418
v 0.009450 2.793941 -1.324418
v -0.035309 2.573593 -1.274796
v -0.129421 2.624120 -1.329235
v 0.127194 2.814378 0.950997
v 0.037296 2.787807 0.841098
v 0.083108 2.787807 0.841098
v 0.220987 2.753307 0.955939
v -0.347078 2.566362 1.560748
v -0.253286 2.505291 1.565691
v -0.209985 2.795787 1.204691
v 0.152500 2.559759 1.223793
v -0.061948 2.449696 -1.695635
v -0.156060 2.500222 -1.750074
v 0.032815 2.465651 -1.444757
v -0.225059 2.604099 -1.593923
v 0.561538 2.805242 0.698540
v 0.699417 2.770741 0.813382
v -0.369867 2.829650 1.011675
v -0.459765 2.803079 0.901776
v -0.491787 2.805090 -1.321044
v -0.581632 2.635270 -1.325861
v 0.649126 2.808980 -1.293900
v 0.604367 2.588631 -1.244278
v 0.189510 2.315286 -1.201858
v 0.341869 3.065348 -1.370771
v -0.481902 2.391371 -1.334306
v -0.139874 3.037854 -1.315968
v -0.230420 2.780866 0.811280
v -0.047555 2.834915 1.034828
v 0.548038 2.751202 0.913809
v 0.312323 2.810183 0.717478
v 1.251548 2.533814 0.019595
v 1.251548 2.533814 0.068240
v 1.286706 2.414298 -0.015563
v 1.286706 2.414298 0.103398
v -1.233622 2.896652 0.103279
v -1.198535 3.015930 0.068192
v -1.198535 3.015930 0.019643
v -1.233622 2.896652 -0.015444
v -1.490891 2.781567 0.173787
v -1.490891 2.781567 0.055063
v -1.362257 2.839110 -0.086510
v -1.362257 2.839110 0.244852
v 1.477122 2.330194 -0.032722
v 1.477122 2.330194 0.086238
v 1.376540 2.374619 0.126490
v 1.376540 2.374619 -0.054846
vn -0.0000 1.0000 -0.0000
vn -0.1007 -0.6174 0.7802
vn 0.1408 0.2410 -0.9602
vn -0.0000 -1.0000 -0.0000
vn 0.4441 -0.8960 -0.0000
vn 0.9935 0.0960 -0.0604
vn -0.0000 -0.0000 -1.0000
vn 1.0000 -0.0000 -0.0000
vn -1.0000 -0.0000 -0.0000
vn -0.0000 -0.0000 1.0000
vn 0.2837 -0.2054 -0.9366
vn -0.0000 0.9054 0.4246
vn -0.9341 0.3179 0.1627
vn -0.0348 -0.8503 -0.5251
vn 0.3846 0.8501 -0.3598
vn -0.0000 0.7708 -0.6371
vn -0.9858 0.1054 0.1305
vn 0.8614 0.3422 -0.3753
vn -0.4139 -0.6843 -0.6003
vn -0.5706 -0.7773 0.2650
vn -0.0379 -0.9686 -0.2455
vn -0.0011 -0.9718 0.2358
vn 0.0067 -0.0319 0.9995
vn 0.0518 -0.2294 -0.9720
vn 0.9594 0.2822 -0.0000
vn -0.2867 0.9580 -0.0000
vn -0.0470 0.2691 0.9620
vn -0.0470 0.2691 -0.9620
vn -0.9594 0.2822 -0.0000
vn 0.5878 0.8090 -0.0000
vn -0.6892 -0.7246 -0.0000
vn 0.1408 0.2410 0.9602
vn 0.4083 -0.9128 -0.0000
vn -0.4040 -0.9147 -0.0000
vt 0.625000 0.500000
vt 0.875000 0.500000
vt 0.875000 0.750000
vt 0.625000 0.750000
vt 0.592620 1.000000
vt 0.592620 0.750000
vt 0.625000 0.250000
vt 0.592620 0.250000
vt 0.125000 0.500000
vt 0.375000 0.500000
vt 0.375000 0.750000
vt 0.125000 0.750000
vt 0.592620 0.500000
vt 0.375000 0.250000
vt 0.375000 0.000000
vt 0.592620 0.000000
vt 0.375000 1.000000
vt 0.625000 1.000000
vt 0.625000 0.000000
vt 0.592620 1.000000
vt 0.592620 0.750000
vt 0.592620 0.250000
s 0
usemtl Material
f 1/1/1 5/2/1 7/3/1 3/4/1
f 10/5/2 11/6/2 20/6/2 17/5/2
f 5/7/3 12/8/3 52/8/3 51/7/3
f 6/9/4 2/10/4 4/11/4 8/12/4
f 11/6/5 9/13/5 47/13/5 48/6/5
f 1/1/6 9/13/6 15/13/6 14/1/6
f 6/14/7 12/8/7 9/13/7 2/10/7
f 2/10/8 9/13/8 11/6/8 4/11/8
f 8/15/9 10/16/9 12/8/9 6/14/9
f 4/11/10 11/6/10 10/5/10 8/17/10
f 16/8/11 13/7/11 14/1/11 15/13/11
f 5/2/12 1/1/12 14/1/12 13/2/12
f 12/8/13 5/7/13 13/7/13 16/8/13
f 9/13/14 12/8/14 16/8/14 15/13/14
f 20/6/15 19/4/15 18/18/15 17/5/15
f 3/4/16 7/3/16 18/3/16 19/4/16
f 7/19/17 10/16/17 17/16/17 18/19/17
f 11/6/18 3/4/18 19/4/18 20/6/18
f 23/20/19 24/21/19 22/6/19 21/5/19
f 17/5/19 20/6/19 24/21/19 23/20/19
f 27/13/20 28/8/20 26/8/20 25/13/20
f 15/13/20 16/8/20 28/8/20 27/13/20
f 43/6/21 44/4/21 29/4/21 30/6/21
f 41/18/22 42/5/22 31/5/22 32/18/22
f 39/22/23 40/7/23 33/7/23 34/8/23
f 37/13/24 38/1/24 35/1/24 36/13/24
f 15/13/24 14/1/24 38/1/24 37/13/24
f 16/8/23 13/7/23 40/7/23 39/22/23
f 18/18/22 17/5/22 42/5/22 41/18/22
f 20/6/21 19/4/21 44/4/21 43/6/21
f 47/13/25 45/1/25 46/4/25 48/6/25
f 1/1/26 3/4/26 46/4/26 45/1/26
f 3/4/27 11/6/27 48/6/27 46/4/27
f 9/13/28 1/1/28 45/1/28 47/13/28
f 49/16/29 50/19/29 51/7/29 52/8/29
f 7/3/30 5/2/30 51/2/30 50/3/30
f 12/8/31 10/16/31 49/16/31 52/8/31
f 10/16/32 7/19/32 50/19/32 49/16/32
f 55/8/33 56/16/33 53/16/33 54/8/33
f 52/8/33 49/16/33 56/16/33 55/8/33
f 59/6/34 60/13/34 57/13/34 58/6/34
f 48/6/34 47/13/34 60/13/34 59/6/34
