# Blender 4.4.3
# www.blender.org
mtllib testsapling.mtl
o Cube
v 0.040892 0.775699 -0.040892
v 0.100000 -0.775699 -0.100000
v 0.040892 0.775699 0.040892
v 0.100000 -0.775699 0.100000
v -0.040892 0.775699 -0.040892
v -0.100000 -0.775699 -0.100000
v -0.040892 0.775699 0.040892
v -0.100000 -0.775699 0.100000
v 0.100000 0.574765 -0.100000
v -0.100000 0.574765 0.100000
v 0.100000 0.574765 0.100000
v -0.100000 0.574765 -0.100000
v -0.033244 1.158841 -0.857813
v -0.002510 1.158841 -0.857813
v -0.030569 1.020704 -0.826705
v -0.089568 1.052380 -0.860833
v 0.071305 1.171653 0.568650
v 0.014947 1.154996 0.499754
v 0.043667 1.154996 0.499754
v 0.130103 1.133367 0.571749
v -0.226018 1.016172 0.950905
v -0.167219 0.977885 0.954003
v -0.140074 1.159998 0.727692
v 0.087169 1.012032 0.739667
v -0.047269 0.943033 -1.090529
v -0.106268 0.974708 -1.124657
v 0.012138 0.953035 -0.933253
v -0.149524 1.039829 -1.026766
vn -0.0000 1.0000 -0.0000
vn -0.1007 -0.6174 0.7802
vn -0.9594 0.2822 -0.0000
vn -0.0000 -1.0000 -0.0000
vn 0.9594 0.2822 -0.0000
vn 0.9935 0.0960 -0.0604
vn -0.0000 -0.0000 -1.0000
vn 1.0000 -0.0000 -0.0000
vn -1.0000 -0.0000 -0.0000
vn -0.0000 -0.0000 1.0000
vn 0.2837 -0.2054 -0.9366
vn -0.0000 0.9054 0.4246
vn -0.9341 0.3179 0.1627
vn -0.0348 -0.8503 -0.5251
vn 0.3846 0.8501 -0.3598
vn -0.0000 0.7708 -0.6371
vn -0.9858 0.1054 0.1305
vn 0.8614 0.3422 -0.3753
vn -0.4139 -0.6843 -0.6003
vn -0.5706 -0.7773 0.2650
vt 0.625000 0.500000
vt 0.875000 0.500000
vt 0.875000 0.750000
vt 0.625000 0.750000
vt 0.592620 1.000000
vt 0.592620 0.750000
vt 0.592620 0.000000
vt 0.625000 0.000000
vt 0.625000 0.250000
vt 0.592620 0.250000
vt 0.125000 0.500000
vt 0.375000 0.500000
vt 0.375000 0.750000
vt 0.125000 0.750000
vt 0.592620 0.500000
vt 0.375000 0.250000
vt 0.375000 0.000000
vt 0.375000 1.000000
vt 0.625000 1.000000
vt 0.592620 1.000000
vt 0.592620 0.750000
s 0
usemtl Material
f 1/1/1 5/2/1 7/3/1 3/4/1
f 10/5/2 11/6/2 20/6/2 17/5/2
f 10/7/3 7/8/3 5/9/3 12/10/3
f 6/11/4 2/12/4 4/13/4 8/14/4
f 9/15/5 1/1/5 3/4/5 11/6/5
f 1/1/6 9/15/6 15/15/6 14/1/6
f 6/16/7 12/10/7 9/15/7 2/12/7
f 2/12/8 9/15/8 11/6/8 4/13/8
f 8/17/9 10/7/9 12/10/9 6/16/9
f 4/13/10 11/6/10 10/5/10 8/18/10
f 16/10/11 13/9/11 14/1/11 15/15/11
f 5/2/12 1/1/12 14/1/12 13/2/12
f 12/10/13 5/9/13 13/9/13 16/10/13
f 9/15/14 12/10/14 16/10/14 15/15/14
f 20/6/15 19/4/15 18/19/15 17/5/15
f 3/4/16 7/3/16 18/3/16 19/4/16
f 7/8/17 10/7/17 17/7/17 18/8/17
f 11/6/18 3/4/18 19/4/18 20/6/18
f 23/20/19 24/21/19 22/6/19 21/5/19
f 17/5/19 20/6/19 24/21/19 23/20/19
f 27/15/20 28/10/20 26/10/20 25/15/20
f 15/15/20 16/10/20 28/10/20 27/15/20
